<?xml version="1.0" encoding="UTF-8" standalone="no"?>
<!-- Created with Inkscape (http://www.inkscape.org/) -->

<svg
   width="210mm"
   height="297mm"
   viewBox="0 0 210 297"
   version="1.1"
   id="svg5"
   inkscape:version="1.4 (86a8ad7, 2024-10-11)"
   sodipodi:docname="hc_vs_S_for_web.svg"
   xmlns:inkscape="http://www.inkscape.org/namespaces/inkscape"
   xmlns:sodipodi="http://sodipodi.sourceforge.net/DTD/sodipodi-0.dtd"
   xmlns="http://www.w3.org/2000/svg"
   xmlns:svg="http://www.w3.org/2000/svg">
  <sodipodi:namedview
     id="namedview7"
     pagecolor="#ffffff"
     bordercolor="#666666"
     borderopacity="1.0"
     inkscape:pageshadow="2"
     inkscape:pageopacity="0.0"
     inkscape:pagecheckerboard="0"
     inkscape:document-units="mm"
     showgrid="false"
     inkscape:zoom="3.1108586"
     inkscape:cx="313.09684"
     inkscape:cy="347.97467"
     inkscape:window-width="1920"
     inkscape:window-height="1094"
     inkscape:window-x="2869"
     inkscape:window-y="1794"
     inkscape:window-maximized="1"
     inkscape:current-layer="g204"
     inkscape:showpageshadow="2"
     inkscape:deskcolor="#d1d1d1" />
  <defs
     id="defs2" />
  <g
     inkscape:label="Layer 1"
     inkscape:groupmode="layer"
     id="layer1">
    <g
       id="g204"
       transform="matrix(0.03527778,0,0,-0.03527778,58.312001,115.80412)">
      <path
         d="m 420,280 h 31.5 m 862,0 H 1282"
         style="fill:none;stroke:#000000;stroke-width:2.5;stroke-linecap:butt;stroke-linejoin:miter;stroke-miterlimit:3.8;stroke-dasharray:none;stroke-opacity:1"
         id="path206" />
      <g
         id="g208"
         transform="scale(10)">
        <text
           transform="matrix(1,0,0,-1,24.1789,25.6648)"
           style="font-variant:normal;font-weight:normal;font-size:7px;font-family:Helvetica;-inkscape-font-specification:Helvetica;writing-mode:lr-tb;fill:#000000;fill-opacity:1;fill-rule:nonzero;stroke:none"
           id="text212"><tspan
             x="0 3.892 5.8379998 9.7299995"
             y="0"
             sodipodi:role="line"
             id="tspan210">1.65</tspan></text>
      </g>
      <path
         d="m 420,312.5 h 15.5 m 878,0 H 1298 m -878,32 h 15.5 m 878,0 H 1298 M 420,377 h 15.5 m 878,0 H 1298 m -878,32 h 15.5 m 878,0 H 1298 m -878,32.5 h 31.5 m 862,0 H 1282"
         style="fill:none;stroke:#000000;stroke-width:2.5;stroke-linecap:butt;stroke-linejoin:miter;stroke-miterlimit:3.8;stroke-dasharray:none;stroke-opacity:1"
         id="path214" />
      <g
         id="g216"
         transform="scale(10)">
        <text
           transform="matrix(1,0,0,-1,24.1789,41.8148)"
           style="font-variant:normal;font-weight:normal;font-size:7px;font-family:Helvetica;-inkscape-font-specification:Helvetica;writing-mode:lr-tb;fill:#000000;fill-opacity:1;fill-rule:nonzero;stroke:none"
           id="text220"><tspan
             x="0 3.892 5.8379998 9.7299995"
             y="0"
             sodipodi:role="line"
             id="tspan218">1.70</tspan></text>
      </g>
      <path
         d="m 420,473.5 h 15.5 m 878,0 H 1298 M 420,506 h 15.5 m 878,0 H 1298 m -878,32 h 15.5 m 878,0 H 1298 m -878,32.5 h 15.5 m 878,0 H 1298 m -878,32 h 31.5 m 862,0 H 1282"
         style="fill:none;stroke:#000000;stroke-width:2.5;stroke-linecap:butt;stroke-linejoin:miter;stroke-miterlimit:3.8;stroke-dasharray:none;stroke-opacity:1"
         id="path222" />
      <g
         id="g224"
         transform="scale(10)">
        <text
           transform="matrix(1,0,0,-1,24.1789,57.9148)"
           style="font-variant:normal;font-weight:normal;font-size:7px;font-family:Helvetica;-inkscape-font-specification:Helvetica;writing-mode:lr-tb;fill:#000000;fill-opacity:1;fill-rule:nonzero;stroke:none"
           id="text228"><tspan
             x="0 3.892 5.8379998 9.7299995"
             y="0"
             sodipodi:role="line"
             id="tspan226">1.75</tspan></text>
      </g>
      <path
         d="m 420,635 h 15.5 m 878,0 H 1298 m -878,32 h 15.5 m 878,0 H 1298 m -878,32.5 h 15.5 m 878,0 H 1298 m -878,32 h 15.5 m 878,0 H 1298 M 420,764 h 31.5 m 862,0 H 1282"
         style="fill:none;stroke:#000000;stroke-width:2.5;stroke-linecap:butt;stroke-linejoin:miter;stroke-miterlimit:3.8;stroke-dasharray:none;stroke-opacity:1"
         id="path230" />
      <g
         id="g232"
         transform="scale(10)">
        <text
           transform="matrix(1,0,0,-1,24.1789,74.0648)"
           style="font-variant:normal;font-weight:normal;font-size:7px;font-family:Helvetica;-inkscape-font-specification:Helvetica;writing-mode:lr-tb;fill:#000000;fill-opacity:1;fill-rule:nonzero;stroke:none"
           id="text236"><tspan
             x="0 3.892 5.8379998 9.7299995"
             y="0"
             sodipodi:role="line"
             id="tspan234">1.80</tspan></text>
      </g>
      <path
         d="m 420,796 h 15.5 m 878,0 H 1298 m -878,32.5 h 15.5 m 878,0 H 1298 M 420,861 h 15.5 m 878,0 H 1298 m -878,32 h 15.5 m 878,0 H 1298 m -878,32.5 h 31.5 m 862,0 H 1282"
         style="fill:none;stroke:#000000;stroke-width:2.5;stroke-linecap:butt;stroke-linejoin:miter;stroke-miterlimit:3.8;stroke-dasharray:none;stroke-opacity:1"
         id="path238" />
      <g
         id="g240"
         transform="scale(10)">
        <text
           transform="matrix(1,0,0,-1,24.1789,90.2148)"
           style="font-variant:normal;font-weight:normal;font-size:7px;font-family:Helvetica;-inkscape-font-specification:Helvetica;writing-mode:lr-tb;fill:#000000;fill-opacity:1;fill-rule:nonzero;stroke:none"
           id="text244"><tspan
             x="0 3.892 5.8379998 9.7299995"
             y="0"
             sodipodi:role="line"
             id="tspan242">1.85</tspan></text>
      </g>
      <path
         d="m 420,957.5 h 15.5 m 878,0 H 1298 M 420,990 h 15.5 m 878,0 H 1298 m -878,32 h 15.5 m 878,0 H 1298 m -878,32.5 h 15.5 m 878,0 H 1298 m -878,32 h 31.5 m 862,0 H 1282"
         style="fill:none;stroke:#000000;stroke-width:2.5;stroke-linecap:butt;stroke-linejoin:miter;stroke-miterlimit:3.8;stroke-dasharray:none;stroke-opacity:1"
         id="path246" />
      <g
         id="g248"
         transform="scale(10)">
        <text
           transform="matrix(1,0,0,-1,24.1789,106.315)"
           style="font-variant:normal;font-weight:normal;font-size:7px;font-family:Helvetica;-inkscape-font-specification:Helvetica;writing-mode:lr-tb;fill:#000000;fill-opacity:1;fill-rule:nonzero;stroke:none"
           id="text252"><tspan
             x="0 3.892 5.8379998 9.7299995"
             y="0"
             sodipodi:role="line"
             id="tspan250">1.90</tspan></text>
      </g>
      <path
         d="m 420,1119 h 15.5 m 878,0 H 1298 m -878,32 h 15.5 m 878,0 H 1298 m -878,32.5 h 15.5 m 878,0 H 1298 m -878,32 h 15.5 m 878,0 H 1298 M 420,1248 h 31.5 m 862,0 H 1282"
         style="fill:none;stroke:#000000;stroke-width:2.5;stroke-linecap:butt;stroke-linejoin:miter;stroke-miterlimit:3.8;stroke-dasharray:none;stroke-opacity:1"
         id="path254" />
      <g
         id="g256"
         transform="scale(10)">
        <text
           transform="matrix(1,0,0,-1,24.1789,122.465)"
           style="font-variant:normal;font-weight:normal;font-size:7px;font-family:Helvetica;-inkscape-font-specification:Helvetica;writing-mode:lr-tb;fill:#000000;fill-opacity:1;fill-rule:nonzero;stroke:none"
           id="text260"><tspan
             x="0 3.892 5.8379998 9.7299995"
             y="0"
             sodipodi:role="line"
             id="tspan258">1.95</tspan></text>
      </g>
      <path
         d="m 420,1280 h 15.5 m 878,0 H 1298 m -878,32.5 h 15.5 m 878,0 H 1298 m -878,32 h 15.5 m 878,0 H 1298 M 420,1377 h 15.5 m 878,0 H 1298 m -878,32 h 31.5 m 862,0 H 1282"
         style="fill:none;stroke:#000000;stroke-width:2.5;stroke-linecap:butt;stroke-linejoin:miter;stroke-miterlimit:3.8;stroke-dasharray:none;stroke-opacity:1"
         id="path262" />
      <g
         id="g264"
         transform="scale(10)">
        <text
           transform="matrix(1,0,0,-1,24.1789,138.565)"
           style="font-variant:normal;font-weight:normal;font-size:7px;font-family:Helvetica;-inkscape-font-specification:Helvetica;writing-mode:lr-tb;fill:#000000;fill-opacity:1;fill-rule:nonzero;stroke:none"
           id="text268"><tspan
             x="0 3.892 5.8379998 9.7299995"
             y="0"
             sodipodi:role="line"
             id="tspan266">2.00</tspan></text>
      </g>
      <path
         d="m 420,1441.5 h 15.5 m 878,0 H 1298 M 420,280 v 31.5 m 0,1130 V 1410"
         style="fill:none;stroke:#000000;stroke-width:2.5;stroke-linecap:butt;stroke-linejoin:miter;stroke-miterlimit:3.8;stroke-dasharray:none;stroke-opacity:1"
         id="path270" />
      <g
         id="g272"
         transform="scale(10)">
        <text
           transform="matrix(1,0,0,-1,37.1355,18.6648)"
           style="font-variant:normal;font-weight:normal;font-size:7px;font-family:Helvetica;-inkscape-font-specification:Helvetica;writing-mode:lr-tb;fill:#000000;fill-opacity:1;fill-rule:nonzero;stroke:none"
           id="text276"><tspan
             x="0 3.892 5.8379998"
             y="0"
             sodipodi:role="line"
             id="tspan274">0.0</tspan></text>
      </g>
      <path
         d="m 505,280 v 15.5 m 0,1146 V 1426 M 590,280 v 31.5 m 0,1130 V 1410"
         style="fill:none;stroke:#000000;stroke-width:2.5;stroke-linecap:butt;stroke-linejoin:miter;stroke-miterlimit:3.8;stroke-dasharray:none;stroke-opacity:1"
         id="path278" />
      <g
         id="g280"
         transform="scale(10)">
        <text
           transform="matrix(1,0,0,-1,54.1355,18.6648)"
           style="font-variant:normal;font-weight:normal;font-size:7px;font-family:Helvetica;-inkscape-font-specification:Helvetica;writing-mode:lr-tb;fill:#000000;fill-opacity:1;fill-rule:nonzero;stroke:none"
           id="text284"><tspan
             x="0 3.892 5.8379998"
             y="0"
             sodipodi:role="line"
             id="tspan282">0.2</tspan></text>
      </g>
      <path
         d="m 675.5,280 v 15.5 m 0,1146 V 1426 m 85,-1146 v 31.5 m 0,1130 V 1410"
         style="fill:none;stroke:#000000;stroke-width:2.5;stroke-linecap:butt;stroke-linejoin:miter;stroke-miterlimit:3.8;stroke-dasharray:none;stroke-opacity:1"
         id="path286" />
      <g
         id="g288"
         transform="scale(10)">
        <text
           transform="matrix(1,0,0,-1,71.1855,18.6648)"
           style="font-variant:normal;font-weight:normal;font-size:7px;font-family:Helvetica;-inkscape-font-specification:Helvetica;writing-mode:lr-tb;fill:#000000;fill-opacity:1;fill-rule:nonzero;stroke:none"
           id="text292"><tspan
             x="0 3.892 5.8379998"
             y="0"
             sodipodi:role="line"
             id="tspan290">0.4</tspan></text>
      </g>
      <path
         d="m 845.5,280 v 15.5 m 0,1146 V 1426 m 85,-1146 v 31.5 m 0,1130 V 1410"
         style="fill:none;stroke:#000000;stroke-width:2.5;stroke-linecap:butt;stroke-linejoin:miter;stroke-miterlimit:3.8;stroke-dasharray:none;stroke-opacity:1"
         id="path294" />
      <g
         id="g296"
         transform="scale(10)">
        <text
           transform="matrix(1,0,0,-1,88.1855,18.6648)"
           style="font-variant:normal;font-weight:normal;font-size:7px;font-family:Helvetica;-inkscape-font-specification:Helvetica;writing-mode:lr-tb;fill:#000000;fill-opacity:1;fill-rule:nonzero;stroke:none"
           id="text300"><tspan
             x="0 3.892 5.8379998"
             y="0"
             sodipodi:role="line"
             id="tspan298">0.6</tspan></text>
      </g>
      <path
         d="m 1015.5,280 v 15.5 m 0,1146 V 1426 M 1101,280 v 31.5 m 0,1130 V 1410"
         style="fill:none;stroke:#000000;stroke-width:2.5;stroke-linecap:butt;stroke-linejoin:miter;stroke-miterlimit:3.8;stroke-dasharray:none;stroke-opacity:1"
         id="path302" />
      <g
         id="g304"
         transform="scale(10)">
        <text
           transform="matrix(1,0,0,-1,105.236,18.6648)"
           style="font-variant:normal;font-weight:normal;font-size:7px;font-family:Helvetica;-inkscape-font-specification:Helvetica;writing-mode:lr-tb;fill:#000000;fill-opacity:1;fill-rule:nonzero;stroke:none"
           id="text308"><tspan
             x="0 3.892 5.8379998"
             y="0"
             sodipodi:role="line"
             id="tspan306">0.8</tspan></text>
      </g>
      <path
         d="m 1186,280 v 15.5 m 0,1146 V 1426 m 85,-1146 v 31.5 m 0,1130 V 1410"
         style="fill:none;stroke:#000000;stroke-width:2.5;stroke-linecap:butt;stroke-linejoin:miter;stroke-miterlimit:3.8;stroke-dasharray:none;stroke-opacity:1"
         id="path310" />
      <g
         id="g312"
         transform="scale(10)">
        <text
           transform="matrix(1,0,0,-1,122.236,18.6648)"
           style="font-variant:normal;font-weight:normal;font-size:7px;font-family:Helvetica;-inkscape-font-specification:Helvetica;writing-mode:lr-tb;fill:#000000;fill-opacity:1;fill-rule:nonzero;stroke:none"
           id="text316"><tspan
             x="0 3.892 5.8379998"
             y="0"
             sodipodi:role="line"
             id="tspan314">1.0</tspan></text>
      </g>
      <path
         d="M 420,1441.5 V 280 h 893.5 v 1161.5 z"
         style="fill:none;stroke:#000000;stroke-width:5;stroke-linecap:butt;stroke-linejoin:miter;stroke-miterlimit:3.8;stroke-dasharray:none;stroke-opacity:1"
         id="path318" />
      <g
         id="g320"
         transform="scale(10)">
        <text
           transform="matrix(0,1,1,0,0,0)"
           style="font-variant:normal;font-weight:normal;font-size:12px;font-family:'Times New Roman';-inkscape-font-specification:Times-Roman;writing-mode:lr-tb;fill:#000000;fill-opacity:1;fill-rule:nonzero;stroke:none"
           id="text324"
           x="69.585503"
           y="19.614912"><tspan
             x="69.585503"
             y="19.614912"
             id="tspan322">h</tspan></text>
        <text
           transform="matrix(0,1,1,0,0,0)"
           style="font-variant:normal;font-weight:normal;font-size:9.6px;font-family:'Times New Roman';-inkscape-font-specification:Times-Roman;writing-mode:lr-tb;fill:#000000;fill-opacity:1;fill-rule:nonzero;stroke:none"
           id="text328"
           x="75.585503"
           y="23.214911"><tspan
             x="75.585503"
             y="23.214911"
             id="tspan326">c</tspan></text>
        <text
           transform="matrix(0,1,1,0,0,0)"
           style="font-variant:normal;font-weight:normal;font-size:12px;font-family:'Times New Roman';-inkscape-font-specification:Times-Roman;writing-mode:lr-tb;fill:#000000;fill-opacity:1;fill-rule:nonzero;stroke:none"
           id="text332"
           x="79.848"
           y="19.614912"><tspan
             x="79.848 83.183998 87.18 91.848 98.520004"
             y="19.614912"
             sodipodi:role="line"
             id="tspan330">/(JS)</tspan></text>
        <text
           transform="matrix(1,0,0,-1,78.6461,6.5)"
           style="font-variant:normal;font-weight:normal;font-size:12px;font-family:'Times New Roman';-inkscape-font-specification:Times-Roman;writing-mode:lr-tb;fill:#000000;fill-opacity:1;fill-rule:nonzero;stroke:none"
           id="text336"><tspan
             x="0 6 9.3360004"
             y="0"
             sodipodi:role="line"
             id="tspan334">1/S</tspan></text>
        <text
           transform="scale(1,-1)"
           style="font-variant:normal;font-weight:normal;font-size:7px;font-family:Helvetica;-inkscape-font-specification:Helvetica;writing-mode:lr-tb;fill:#000000;fill-opacity:1;fill-rule:nonzero;stroke:none"
           id="text340"
           x="48.97266"
           y="-45.614799"><tspan
             sodipodi:role="line"
             id="tspan338"
             x="48.97266"
             y="-45.614799">This work</tspan></text>
        <text
           transform="matrix(1,0,0,-1,76.6871,49.1148)"
           style="font-variant:normal;font-weight:normal;font-size:5.6px;font-family:Helvetica;-inkscape-font-specification:Helvetica;writing-mode:lr-tb;fill:#000000;fill-opacity:1;fill-rule:nonzero;stroke:none"
           id="text344"><tspan
             x="0"
             y="0"
             id="tspan342" /></text>
      </g>
      <path
         d="m 1286.75,633 c 0,8.695 -7.05,15.75 -15.75,15.75 -8.7,0 -15.75,-7.055 -15.75,-15.75 0,-8.695 7.05,-15.75 15.75,-15.75 8.7,0 15.75,7.055 15.75,15.75"
         style="fill:#57b5e8;fill-opacity:1;fill-rule:nonzero;stroke:none"
         id="path346" />
      <path
         d="m 1003.25,1069.5 c 0,8.7 -7.055,15.75 -15.75,15.75 -8.695,0 -15.75,-7.05 -15.75,-15.75 0,-8.7 7.055,-15.75 15.75,-15.75 8.695,0 15.75,7.05 15.75,15.75"
         style="fill:#57b5e8;fill-opacity:1;fill-rule:nonzero;stroke:none"
         id="path348" />
      <path
         d="m 861.25,1217.5 c 0,8.7 -7.055,15.75 -15.75,15.75 -8.695,0 -15.75,-7.05 -15.75,-15.75 0,-8.7 7.055,-15.75 15.75,-15.75 8.695,0 15.75,7.05 15.75,15.75"
         style="fill:#57b5e8;fill-opacity:1;fill-rule:nonzero;stroke:none"
         id="path350" />
      <path
         d="m 776.25,1286 c 0,8.7 -7.055,15.75 -15.75,15.75 -8.695,0 -15.75,-7.05 -15.75,-15.75 0,-8.7 7.055,-15.75 15.75,-15.75 8.695,0 15.75,7.05 15.75,15.75"
         style="fill:#57b5e8;fill-opacity:1;fill-rule:nonzero;stroke:none"
         id="path352" />
      <path
         d="m 719.25,1323.5 c 0,8.7 -7.055,15.75 -15.75,15.75 -8.695,0 -15.75,-7.05 -15.75,-15.75 0,-8.7 7.055,-15.75 15.75,-15.75 8.695,0 15.75,7.05 15.75,15.75"
         style="fill:#57b5e8;fill-opacity:1;fill-rule:nonzero;stroke:none"
         id="path354" />
      <path
         d="m 605.75,1378 c 0,8.7 -7.055,15.75 -15.75,15.75 -8.695,0 -15.75,-7.05 -15.75,-15.75 0,-8.7 7.055,-15.75 15.75,-15.75 8.695,0 15.75,7.05 15.75,15.75"
         style="fill:#57b5e8;fill-opacity:1;fill-rule:nonzero;stroke:none"
         id="path356" />
      <path
         d="m 520.75,1401.5 c 0,8.7 -7.055,15.75 -15.75,15.75 -8.695,0 -15.75,-7.05 -15.75,-15.75 0,-8.7 7.055,-15.75 15.75,-15.75 8.695,0 15.75,7.05 15.75,15.75"
         style="fill:#57b5e8;fill-opacity:1;fill-rule:nonzero;stroke:none"
         id="path358" />
      <path
         d="m 478.25,1407 c 0,8.7 -7.055,15.75 -15.75,15.75 -8.695,0 -15.75,-7.05 -15.75,-15.75 0,-8.7 7.055,-15.75 15.75,-15.75 8.695,0 15.75,7.05 15.75,15.75"
         style="fill:#57b5e8;fill-opacity:1;fill-rule:nonzero;stroke:none"
         id="path360" />
      <path
         d="m 464.25,1408.5 c 0,8.7 -7.055,15.75 -15.75,15.75 -8.695,0 -15.75,-7.05 -15.75,-15.75 0,-8.7 7.055,-15.75 15.75,-15.75 8.695,0 15.75,7.05 15.75,15.75"
         style="fill:#57b5e8;fill-opacity:1;fill-rule:nonzero;stroke:none"
         id="path362" />
      <path
         d="m 452.75,1409 c 0,8.7 -7.055,15.75 -15.75,15.75 -8.695,0 -15.75,-7.05 -15.75,-15.75 0,-8.7 7.055,-15.75 15.75,-15.75 8.695,0 15.75,7.05 15.75,15.75"
         style="fill:#57b5e8;fill-opacity:1;fill-rule:nonzero;stroke:none"
         id="path364" />
      <path
         d="m 444.25,1409 c 0,8.7 -7.055,15.75 -15.75,15.75 -8.695,0 -15.75,-7.05 -15.75,-15.75 0,-8.7 7.055,-15.75 15.75,-15.75 8.695,0 15.75,7.05 15.75,15.75"
         style="fill:#57b5e8;fill-opacity:1;fill-rule:nonzero;stroke:none"
         id="path366" />
      <path
         d="m 955.25,486.5 c 0,8.695 -7.055,15.75 -15.75,15.75 -8.695,0 -15.75,-7.055 -15.75,-15.75 0,-8.695 7.055,-15.75 15.75,-15.75 8.695,0 15.75,7.055 15.75,15.75"
         style="fill:#57b5e8;fill-opacity:1;fill-rule:nonzero;stroke:none"
         id="path368" />
      <g
         id="g370"
         transform="scale(10)">
        <text
           transform="scale(1,-1)"
           style="font-variant:normal;font-weight:normal;font-size:7px;font-family:Helvetica;-inkscape-font-specification:Helvetica;writing-mode:lr-tb;fill:#000000;fill-opacity:1;fill-rule:nonzero;stroke:none"
           id="text374"
           x="53.271961"
           y="-39.3148"><tspan
             x="53.271961 58.325958 64.15696 69.21096 74.656967"
             y="-39.3148"
             sodipodi:role="line"
             id="tspan372">DMRG</tspan></text>
      </g>
      <path
         d="m 840,416.5 h 199.5 M 1271,635 l -283.5,430.5 -142,145 -85,74"
         style="fill:none;stroke:#009e73;stroke-width:2.5;stroke-linecap:butt;stroke-linejoin:miter;stroke-miterlimit:3.8;stroke-dasharray:none;stroke-opacity:1"
         id="path376" />
      <path
         d="m 1278.88,635 c 0,4.348 -3.53,7.875 -7.88,7.875 -4.35,0 -7.87,-3.527 -7.87,-7.875 0,-4.348 3.52,-7.875 7.87,-7.875 4.35,0 7.88,3.527 7.88,7.875"
         style="fill:#009e73;fill-opacity:1;fill-rule:nonzero;stroke:none"
         id="path378" />
      <path
         d="m 995.375,1065.5 c 0,4.35 -3.527,7.88 -7.875,7.88 -4.348,0 -7.875,-3.53 -7.875,-7.88 0,-4.35 3.527,-7.87 7.875,-7.87 4.348,0 7.875,3.52 7.875,7.87"
         style="fill:#009e73;fill-opacity:1;fill-rule:nonzero;stroke:none"
         id="path380" />
      <path
         d="m 853.375,1210.5 c 0,4.35 -3.527,7.88 -7.875,7.88 -4.348,0 -7.875,-3.53 -7.875,-7.88 0,-4.35 3.527,-7.87 7.875,-7.87 4.348,0 7.875,3.52 7.875,7.87"
         style="fill:#009e73;fill-opacity:1;fill-rule:nonzero;stroke:none"
         id="path382" />
      <path
         d="m 768.375,1284.5 c 0,4.35 -3.527,7.88 -7.875,7.88 -4.348,0 -7.875,-3.53 -7.875,-7.88 0,-4.35 3.527,-7.87 7.875,-7.87 4.348,0 7.875,3.52 7.875,7.87"
         style="fill:#009e73;fill-opacity:1;fill-rule:nonzero;stroke:none"
         id="path384" />
      <path
         d="m 947.375,416.5 c 0,4.348 -3.527,7.875 -7.875,7.875 -4.348,0 -7.875,-3.527 -7.875,-7.875 0,-4.348 3.527,-7.875 7.875,-7.875 4.348,0 7.875,3.527 7.875,7.875"
         style="fill:#009e73;fill-opacity:1;fill-rule:nonzero;stroke:none"
         id="path386" />
      <g
         id="g388"
         transform="matrix(10,0,0,10,31.341828,0)">
        <text
           transform="scale(1,-1)"
           style="font-variant:normal;font-weight:normal;font-size:7px;font-family:Helvetica;-inkscape-font-specification:Helvetica;writing-mode:lr-tb;fill:#000000;fill-opacity:1;fill-rule:nonzero;stroke:none"
           id="text392"
           x="50.542698"
           y="-32.3148"><tspan
             x="50.542698 55.596695 59.488697 64.1577 70.765694"
             y="-32.3148"
             sodipodi:role="line"
             id="tspan390">NLSW</tspan></text>
      </g>
      <path
         d="m 840,346.5 h 199.5 m 231.5,16 -283.5,622 -142,196 -85,86 -57,45.5 -113.5,63.5 -85,25.5 -42.5,6 -14,1.5 -11.5,0.5 h -8.5 -8.5"
         style="fill:none;stroke:#9400d4;stroke-width:2.5;stroke-linecap:butt;stroke-linejoin:miter;stroke-miterlimit:3.8;stroke-dasharray:none;stroke-opacity:1"
         id="path394" />
      <path
         d="m 1278.88,362.5 c 0,4.348 -3.53,7.875 -7.88,7.875 -4.35,0 -7.87,-3.527 -7.87,-7.875 0,-4.348 3.52,-7.875 7.87,-7.875 4.35,0 7.88,3.527 7.88,7.875"
         style="fill:#9400d4;fill-opacity:1;fill-rule:nonzero;stroke:none"
         id="path396" />
      <path
         d="m 995.375,984.5 c 0,4.348 -3.527,7.875 -7.875,7.875 -4.348,0 -7.875,-3.527 -7.875,-7.875 0,-4.348 3.527,-7.875 7.875,-7.875 4.348,0 7.875,3.527 7.875,7.875"
         style="fill:#9400d4;fill-opacity:1;fill-rule:nonzero;stroke:none"
         id="path398" />
      <path
         d="m 853.375,1180.5 c 0,4.35 -3.527,7.88 -7.875,7.88 -4.348,0 -7.875,-3.53 -7.875,-7.88 0,-4.35 3.527,-7.87 7.875,-7.87 4.348,0 7.875,3.52 7.875,7.87"
         style="fill:#9400d4;fill-opacity:1;fill-rule:nonzero;stroke:none"
         id="path400" />
      <path
         d="m 768.375,1266.5 c 0,4.35 -3.527,7.88 -7.875,7.88 -4.348,0 -7.875,-3.53 -7.875,-7.88 0,-4.35 3.527,-7.87 7.875,-7.87 4.348,0 7.875,3.52 7.875,7.87"
         style="fill:#9400d4;fill-opacity:1;fill-rule:nonzero;stroke:none"
         id="path402" />
      <path
         d="m 711.375,1312 c 0,4.35 -3.527,7.88 -7.875,7.88 -4.348,0 -7.875,-3.53 -7.875,-7.88 0,-4.35 3.527,-7.87 7.875,-7.87 4.348,0 7.875,3.52 7.875,7.87"
         style="fill:#9400d4;fill-opacity:1;fill-rule:nonzero;stroke:none"
         id="path404" />
      <path
         d="m 597.875,1375.5 c 0,4.35 -3.527,7.88 -7.875,7.88 -4.348,0 -7.875,-3.53 -7.875,-7.88 0,-4.35 3.527,-7.87 7.875,-7.87 4.348,0 7.875,3.52 7.875,7.87"
         style="fill:#9400d4;fill-opacity:1;fill-rule:nonzero;stroke:none"
         id="path406" />
      <path
         d="m 512.875,1401 c 0,4.35 -3.527,7.88 -7.875,7.88 -4.348,0 -7.875,-3.53 -7.875,-7.88 0,-4.35 3.527,-7.87 7.875,-7.87 4.348,0 7.875,3.52 7.875,7.87"
         style="fill:#9400d4;fill-opacity:1;fill-rule:nonzero;stroke:none"
         id="path408" />
      <path
         d="m 470.375,1407 c 0,4.35 -3.527,7.88 -7.875,7.88 -4.348,0 -7.875,-3.53 -7.875,-7.88 0,-4.35 3.527,-7.87 7.875,-7.87 4.348,0 7.875,3.52 7.875,7.87"
         style="fill:#9400d4;fill-opacity:1;fill-rule:nonzero;stroke:none"
         id="path410" />
      <path
         d="m 456.375,1408.5 c 0,4.35 -3.527,7.88 -7.875,7.88 -4.348,0 -7.875,-3.53 -7.875,-7.88 0,-4.35 3.527,-7.87 7.875,-7.87 4.348,0 7.875,3.52 7.875,7.87"
         style="fill:#9400d4;fill-opacity:1;fill-rule:nonzero;stroke:none"
         id="path412" />
      <path
         d="m 444.875,1409 c 0,4.35 -3.527,7.88 -7.875,7.88 -4.348,0 -7.875,-3.53 -7.875,-7.88 0,-4.35 3.527,-7.87 7.875,-7.87 4.348,0 7.875,3.52 7.875,7.87"
         style="fill:#9400d4;fill-opacity:1;fill-rule:nonzero;stroke:none"
         id="path414" />
      <path
         d="m 436.375,1409 c 0,4.35 -3.527,7.88 -7.875,7.88 -4.348,0 -7.875,-3.53 -7.875,-7.88 0,-4.35 3.527,-7.87 7.875,-7.87 4.348,0 7.875,3.52 7.875,7.87"
         style="fill:#9400d4;fill-opacity:1;fill-rule:nonzero;stroke:none"
         id="path416" />
      <path
         d="m 427.875,1409 c 0,4.35 -3.527,7.88 -7.875,7.88 -4.348,0 -7.875,-3.53 -7.875,-7.88 0,-4.35 3.527,-7.87 7.875,-7.87 4.348,0 7.875,3.52 7.875,7.87"
         style="fill:#9400d4;fill-opacity:1;fill-rule:nonzero;stroke:none"
         id="path418" />
      <path
         d="m 947.375,346.5 c 0,4.348 -3.527,7.875 -7.875,7.875 -4.348,0 -7.875,-3.527 -7.875,-7.875 0,-4.348 3.527,-7.875 7.875,-7.875 4.348,0 7.875,3.527 7.875,7.875"
         style="fill:#9400d4;fill-opacity:1;fill-rule:nonzero;stroke:none"
         id="path420" />
      <path
         d="M 420,1441.5 V 280 h 893.5 v 1161.5 z"
         style="fill:none;stroke:#000000;stroke-width:5;stroke-linecap:butt;stroke-linejoin:miter;stroke-miterlimit:3.8;stroke-dasharray:none;stroke-opacity:1"
         id="path422" />
    </g>
  </g>
</svg>
