<svg width="1611" height="2012" xmlns="http://www.w3.org/2000/svg" xmlns:xlink="http://www.w3.org/1999/xlink" xml:space="preserve" overflow="hidden"><g transform="translate(-2681 -431)"><path d="M3488 660 3644.36 823.241 3849.36 764.196 3918.86 969.116 4116.91 1003.85 4078.69 1205.29 4242 1299.07 4151.66 1483.15 4228.1 1635.97 4068.27 1785.32 4092.59 1924.25 3904.96 1983.29 3842.41 2132.64 3661.73 2108.33 3508.85 2216 3342.06 2111.8 3171.81 2153.48 3084.94 1979.82 2879.94 1941.62 2866.04 1761.01 2734 1629.03 2824.34 1483.15 2737.47 1299.07 2904.26 1180.98 2890.36 976.062 3084.94 937.857 3150.96 753.777 3331.64 819.768 3488 660Z" stroke="#404040" stroke-width="27.5" stroke-miterlimit="8" fill="none" fill-rule="evenodd"/><path d="M3255.5 821C3255.5 778.75 3289.75 744.5 3332 744.5 3374.25 744.5 3408.5 778.75 3408.5 821 3408.5 863.25 3374.25 897.5 3332 897.5 3289.75 897.5 3255.5 863.25 3255.5 821Z" stroke="#0084B4" stroke-width="4.58333" stroke-miterlimit="8" fill="#0084B4" fill-rule="evenodd"/><path d="M3562.5 821C3562.5 778.75 3596.75 744.5 3639 744.5 3681.25 744.5 3715.5 778.75 3715.5 821 3715.5 863.25 3681.25 897.5 3639 897.5 3596.75 897.5 3562.5 863.25 3562.5 821Z" stroke="#0084B4" stroke-width="4.58333" stroke-miterlimit="8" fill="#0084B4" fill-rule="evenodd"/><path d="M3836.5 972.5C3836.5 930.526 3870.75 896.5 3913 896.5 3955.25 896.5 3989.5 930.526 3989.5 972.5 3989.5 1014.47 3955.25 1048.5 3913 1048.5 3870.75 1048.5 3836.5 1014.47 3836.5 972.5Z" stroke="#0084B4" stroke-width="4.58333" stroke-miterlimit="8" fill="#0084B4" fill-rule="evenodd"/><path d="M4000.5 1203.5C4000.5 1161.53 4034.75 1127.5 4077 1127.5 4119.25 1127.5 4153.5 1161.53 4153.5 1203.5 4153.5 1245.47 4119.25 1279.5 4077 1279.5 4034.75 1279.5 4000.5 1245.47 4000.5 1203.5Z" stroke="#0084B4" stroke-width="4.58333" stroke-miterlimit="8" fill="#0084B4" fill-rule="evenodd"/><path d="M3007.5 943C3007.5 900.75 3041.75 866.5 3084 866.5 3126.25 866.5 3160.5 900.75 3160.5 943 3160.5 985.25 3126.25 1019.5 3084 1019.5 3041.75 1019.5 3007.5 985.25 3007.5 943Z" stroke="#0084B4" stroke-width="4.58333" stroke-miterlimit="8" fill="#0084B4" fill-rule="evenodd"/><path d="M2832.5 1182.5C2832.5 1140.53 2866.53 1106.5 2908.5 1106.5 2950.47 1106.5 2984.5 1140.53 2984.5 1182.5 2984.5 1224.47 2950.47 1258.5 2908.5 1258.5 2866.53 1258.5 2832.5 1224.47 2832.5 1182.5Z" stroke="#0084B4" stroke-width="4.58333" stroke-miterlimit="8" fill="#0084B4" fill-rule="evenodd"/><path d="M2756.5 1487.5C2756.5 1445.53 2790.53 1411.5 2832.5 1411.5 2874.47 1411.5 2908.5 1445.53 2908.5 1487.5 2908.5 1529.47 2874.47 1563.5 2832.5 1563.5 2790.53 1563.5 2756.5 1529.47 2756.5 1487.5Z" stroke="#0084B4" stroke-width="4.58333" stroke-miterlimit="8" fill="#0084B4" fill-rule="evenodd"/><path d="M2798.5 1752.5C2798.5 1710.53 2832.75 1676.5 2875 1676.5 2917.25 1676.5 2951.5 1710.53 2951.5 1752.5 2951.5 1794.47 2917.25 1828.5 2875 1828.5 2832.75 1828.5 2798.5 1794.47 2798.5 1752.5Z" stroke="#0084B4" stroke-width="4.58333" stroke-miterlimit="8" fill="#0084B4" fill-rule="evenodd"/><path d="M3007.5 1973C3007.5 1930.75 3041.75 1896.5 3084 1896.5 3126.25 1896.5 3160.5 1930.75 3160.5 1973 3160.5 2015.25 3126.25 2049.5 3084 2049.5 3041.75 2049.5 3007.5 2015.25 3007.5 1973Z" stroke="#0084B4" stroke-width="4.58333" stroke-miterlimit="8" fill="#0084B4" fill-rule="evenodd"/><path d="M3270.5 2101C3270.5 2058.75 3304.75 2024.5 3347 2024.5 3389.25 2024.5 3423.5 2058.75 3423.5 2101 3423.5 2143.25 3389.25 2177.5 3347 2177.5 3304.75 2177.5 3270.5 2143.25 3270.5 2101Z" stroke="#0084B4" stroke-width="4.58333" stroke-miterlimit="8" fill="#0084B4" fill-rule="evenodd"/><path d="M3989.5 1774.5C3989.5 1732.53 4023.53 1698.5 4065.5 1698.5 4107.47 1698.5 4141.5 1732.53 4141.5 1774.5 4141.5 1816.47 4107.47 1850.5 4065.5 1850.5 4023.53 1850.5 3989.5 1816.47 3989.5 1774.5Z" stroke="#0084B4" stroke-width="4.58333" stroke-miterlimit="8" fill="#0084B4" fill-rule="evenodd"/><path d="M3581.5 2101C3581.5 2058.75 3615.75 2024.5 3658 2024.5 3700.25 2024.5 3734.5 2058.75 3734.5 2101 3734.5 2143.25 3700.25 2177.5 3658 2177.5 3615.75 2177.5 3581.5 2143.25 3581.5 2101Z" stroke="#0084B4" stroke-width="4.58333" stroke-miterlimit="8" fill="#0084B4" fill-rule="evenodd"/><path d="M3826.5 1980.5C3826.5 1938.53 3860.53 1904.5 3902.5 1904.5 3944.47 1904.5 3978.5 1938.53 3978.5 1980.5 3978.5 2022.47 3944.47 2056.5 3902.5 2056.5 3860.53 2056.5 3826.5 2022.47 3826.5 1980.5Z" stroke="#0084B4" stroke-width="4.58333" stroke-miterlimit="8" fill="#0084B4" fill-rule="evenodd"/><path d="M4076.5 1482.5C4076.5 1440.53 4110.75 1406.5 4153 1406.5 4195.25 1406.5 4229.5 1440.53 4229.5 1482.5 4229.5 1524.47 4195.25 1558.5 4153 1558.5 4110.75 1558.5 4076.5 1524.47 4076.5 1482.5Z" stroke="#0084B4" stroke-width="4.58333" stroke-miterlimit="8" fill="#0084B4" fill-rule="evenodd"/><path d="M3433.5 660C3433.5 630.453 3457.23 606.5 3486.5 606.5 3515.77 606.5 3539.5 630.453 3539.5 660 3539.5 689.547 3515.77 713.5 3486.5 713.5 3457.23 713.5 3433.5 689.547 3433.5 660Z" stroke="#7F7F7F" stroke-width="4.58333" stroke-miterlimit="8" fill="#7F7F7F" fill-rule="evenodd"/><path d="M3795.5 767.5C3795.5 738.229 3819.45 714.5 3849 714.5 3878.55 714.5 3902.5 738.229 3902.5 767.5 3902.5 796.771 3878.55 820.5 3849 820.5 3819.45 820.5 3795.5 796.771 3795.5 767.5Z" stroke="#7F7F7F" stroke-width="4.58333" stroke-miterlimit="8" fill="#7F7F7F" fill-rule="evenodd"/><path d="M3091.5 760C3091.5 730.453 3115.45 706.5 3145 706.5 3174.55 706.5 3198.5 730.453 3198.5 760 3198.5 789.547 3174.55 813.5 3145 813.5 3115.45 813.5 3091.5 789.547 3091.5 760Z" stroke="#7F7F7F" stroke-width="4.58333" stroke-miterlimit="8" fill="#7F7F7F" fill-rule="evenodd"/><path d="M2840.5 966C2840.5 936.453 2864.45 912.5 2894 912.5 2923.55 912.5 2947.5 936.453 2947.5 966 2947.5 995.547 2923.55 1019.5 2894 1019.5 2864.45 1019.5 2840.5 995.547 2840.5 966Z" stroke="#7F7F7F" stroke-width="4.58333" stroke-miterlimit="8" fill="#7F7F7F" fill-rule="evenodd"/><path d="M2683.5 1299C2683.5 1269.45 2707.45 1245.5 2737 1245.5 2766.55 1245.5 2790.5 1269.45 2790.5 1299 2790.5 1328.55 2766.55 1352.5 2737 1352.5 2707.45 1352.5 2683.5 1328.55 2683.5 1299Z" stroke="#7F7F7F" stroke-width="4.58333" stroke-miterlimit="8" fill="#7F7F7F" fill-rule="evenodd"/><path d="M2686.5 1629.5C2686.5 1600.23 2710.45 1576.5 2740 1576.5 2769.55 1576.5 2793.5 1600.23 2793.5 1629.5 2793.5 1658.77 2769.55 1682.5 2740 1682.5 2710.45 1682.5 2686.5 1658.77 2686.5 1629.5Z" stroke="#7F7F7F" stroke-width="4.58333" stroke-miterlimit="8" fill="#7F7F7F" fill-rule="evenodd"/><path d="M2830.5 1941.5C2830.5 1912.23 2854.23 1888.5 2883.5 1888.5 2912.77 1888.5 2936.5 1912.23 2936.5 1941.5 2936.5 1970.77 2912.77 1994.5 2883.5 1994.5 2854.23 1994.5 2830.5 1970.77 2830.5 1941.5Z" stroke="#7F7F7F" stroke-width="4.58333" stroke-miterlimit="8" fill="#7F7F7F" fill-rule="evenodd"/><path d="M3121.5 2154C3121.5 2124.45 3145.23 2100.5 3174.5 2100.5 3203.77 2100.5 3227.5 2124.45 3227.5 2154 3227.5 2183.55 3203.77 2207.5 3174.5 2207.5 3145.23 2207.5 3121.5 2183.55 3121.5 2154Z" stroke="#7F7F7F" stroke-width="4.58333" stroke-miterlimit="8" fill="#7F7F7F" fill-rule="evenodd"/><path d="M3449.5 2215C3449.5 2185.45 3473.23 2161.5 3502.5 2161.5 3531.77 2161.5 3555.5 2185.45 3555.5 2215 3555.5 2244.55 3531.77 2268.5 3502.5 2268.5 3473.23 2268.5 3449.5 2244.55 3449.5 2215Z" stroke="#7F7F7F" stroke-width="4.58333" stroke-miterlimit="8" fill="#7F7F7F" fill-rule="evenodd"/><path d="M3788.5 2132C3788.5 2102.45 3812.45 2078.5 3842 2078.5 3871.55 2078.5 3895.5 2102.45 3895.5 2132 3895.5 2161.55 3871.55 2185.5 3842 2185.5 3812.45 2185.5 3788.5 2161.55 3788.5 2132Z" stroke="#7F7F7F" stroke-width="4.58333" stroke-miterlimit="8" fill="#7F7F7F" fill-rule="evenodd"/><path d="M4035.5 1932C4035.5 1902.45 4059.23 1878.5 4088.5 1878.5 4117.77 1878.5 4141.5 1902.45 4141.5 1932 4141.5 1961.55 4117.77 1985.5 4088.5 1985.5 4059.23 1985.5 4035.5 1961.55 4035.5 1932Z" stroke="#7F7F7F" stroke-width="4.58333" stroke-miterlimit="8" fill="#7F7F7F" fill-rule="evenodd"/><path d="M4170.5 1645.5C4170.5 1616.23 4194.45 1592.5 4224 1592.5 4253.55 1592.5 4277.5 1616.23 4277.5 1645.5 4277.5 1674.77 4253.55 1698.5 4224 1698.5 4194.45 1698.5 4170.5 1674.77 4170.5 1645.5Z" stroke="#7F7F7F" stroke-width="4.58333" stroke-miterlimit="8" fill="#7F7F7F" fill-rule="evenodd"/><path d="M4182.5 1299C4182.5 1269.45 4206.45 1245.5 4236 1245.5 4265.55 1245.5 4289.5 1269.45 4289.5 1299 4289.5 1328.55 4265.55 1352.5 4236 1352.5 4206.45 1352.5 4182.5 1328.55 4182.5 1299Z" stroke="#7F7F7F" stroke-width="4.58333" stroke-miterlimit="8" fill="#7F7F7F" fill-rule="evenodd"/><path d="M4057.5 1010C4057.5 980.453 4081.45 956.5 4111 956.5 4140.55 956.5 4164.5 980.453 4164.5 1010 4164.5 1039.55 4140.55 1063.5 4111 1063.5 4081.45 1063.5 4057.5 1039.55 4057.5 1010Z" stroke="#7F7F7F" stroke-width="4.58333" stroke-miterlimit="8" fill="#7F7F7F" fill-rule="evenodd"/><path d="M3497 431 3497 2435.32" stroke="#0084B4" stroke-width="13.75" stroke-miterlimit="8" stroke-dasharray="55 41.25" fill="none" fill-rule="evenodd"/><path d="M3551.36 1183.86 3563.47 1187.84 3574.85 1192.51 3585.26 1197.75 3594.67 1203.53 3603.05 1209.82 3610.36 1216.57 3616.55 1223.76 3621.58 1231.36 3625.36 1239.32 3627.82 1247.57 3628.89 1256.03 3628.5 1264.57 3626.64 1273.08 3623.3 1281.43 3618.52 1289.53 3612.31 1297.33 3604.87 1304.63 3596.42 1311.25 3587.09 1317.22 3576.96 1322.52 3566.12 1327.17 3554.67 1331.16 3542.67 1334.48 3530.24 1337.12 3517.43 1339.08 3504.35 1340.33 3491.08 1340.87 3477.7 1340.68 3464.3 1339.74 3450.97 1338.02 3437.79 1335.52 3424.86 1332.21 3412.53 1328.16 3401.15 1323.5 3390.74 1318.25 3381.33 1312.47 3372.95 1306.19 3365.64 1299.43 3359.45 1292.24 3354.42 1284.64 3350.64 1276.68 3348.18 1268.43 3347.11 1259.97 3347.5 1251.43 3349.36 1242.92 3352.7 1234.57 3357.48 1226.47 3363.64 1218.72 3368.44 1213.83 3373.98 1208.98 3382.66 1203.88 3389.62 1215.74 3381.51 1220.5 3382.55 1219.75 3377.69 1224.01 3378.07 1223.65 3373.71 1228.1 3374.18 1227.56 3368.54 1234.65 3369.08 1233.87 3364.81 1241.1 3365.27 1240.16 3362.34 1247.5 3362.67 1246.42 3361.06 1253.79 3361.21 1252.63 3360.88 1260 3360.83 1258.83 3361.75 1266.15 3361.52 1265.04 3363.67 1272.25 3363.29 1271.26 3366.64 1278.3 3366.16 1277.46 3370.68 1284.29 3370.15 1283.6 3375.8 1290.16 3375.26 1289.6 3382.02 1295.85 3381.48 1295.4 3389.32 1301.28 3388.79 1300.92 3397.69 1306.38 3397.18 1306.1 3407.1 1311.09 3406.61 1310.87 3417.52 1315.35 3417.06 1315.18 3428.93 1319.07 3428.49 1318.95 3440.99 1322.15 3440.57 1322.05 3453.33 1324.48 3452.93 1324.41 3465.86 1326.07 3465.47 1326.03 3478.48 1326.95 3478.09 1326.93 3491.09 1327.12 3490.71 1327.13 3503.6 1326.6 3503.23 1326.63 3515.93 1325.41 3515.55 1325.46 3527.96 1323.56 3527.57 1323.63 3539.61 1321.07 3539.21 1321.17 3550.78 1317.96 3550.36 1318.1 3561.37 1314.26 3560.92 1314.44 3571.29 1309.99 3570.81 1310.22 3580.45 1305.17 3579.94 1305.47 3588.74 1299.85 3588.2 1300.23 3596.08 1294.04 3595.51 1294.54 3602.39 1287.81 3601.82 1288.44 3607.46 1281.35 3606.92 1282.13 3611.19 1274.9 3610.73 1275.84 3613.66 1268.51 3613.33 1269.58 3614.94 1262.21 3614.79 1263.37 3615.12 1256 3615.17 1257.17 3614.25 1249.85 3614.48 1250.96 3612.33 1243.75 3612.71 1244.74 3609.36 1237.7 3609.84 1238.54 3605.32 1231.71 3605.85 1232.4 3600.2 1225.84 3600.74 1226.4 3593.98 1220.15 3594.52 1220.6 3586.68 1214.72 3587.21 1215.08 3578.31 1209.62 3578.82 1209.9 3568.9 1204.91 3569.39 1205.13 3558.48 1200.65 3558.94 1200.83 3547.07 1196.93ZM3370.41 1194.8 3416.52 1193.72 3389.72 1231.25Z" fill="#0084B4"/><text font-family="Segoe UI,Segoe UI_MSFontService,sans-serif" font-weight="400" font-size="128" transform="matrix(1 0 0 1 3669.8 1316)">2)</text><path d="M2790.19 912.651 2804.49 895.955 2819.28 879.557 2834.49 863.532 2850.1 847.885 2866.13 832.623 2882.55 817.753 2899.35 803.282 2916.54 789.216 2934.1 775.561 2952.01 762.325 2970.29 749.513 2988.91 737.133 3007.86 725.191 3027.17 713.678 3036.33 708.623 3042.98 720.662 3033.92 725.661 3034.12 725.547 3014.98 736.958 3015.12 736.87 2996.31 748.722 2996.45 748.63 2977.97 760.916 2978.11 760.821 2959.98 773.535 2960.12 773.435 2942.33 786.57 2942.47 786.467 2925.05 800.017 2925.18 799.91 2908.13 813.868 2908.26 813.758 2891.58 828.117 2891.71 828.003 2875.42 842.757 2875.55 842.639 2859.65 857.781 2859.77 857.66 2844.28 873.184 2844.4 873.059 2829.31 888.958 2829.43 888.83 2814.76 905.098 2814.88 904.966 2800.64 921.595ZM3023.74 699.835 3069.83 698.168 3043.51 736.039Z" fill="#0084B4"/><text font-family="Segoe UI,Segoe UI_MSFontService,sans-serif" font-weight="400" font-size="128" transform="matrix(1 0 0 1 2793.93 753)">1)</text><path d="M2844.52 1318.57C2847.31 1318.57 2849.84 1318.73 2852.14 1319.06 2854.43 1319.39 2856.71 1319.96 2858.99 1320.77L2856.97 1330.2 2853.33 1330.2C2853 1327.54 2852.12 1325.51 2850.7 1324.14 2849.28 1322.76 2847.04 1322.07 2843.98 1322.07 2841.62 1322.07 2839.7 1322.68 2838.23 1323.89 2836.77 1325.1 2836.03 1326.7 2836.03 1328.67 2836.03 1329.75 2836.22 1330.7 2836.59 1331.53 2836.97 1332.35 2837.72 1333.26 2838.86 1334.24 2840 1335.23 2841.77 1336.45 2844.16 1337.88 2846.05 1339.02 2847.56 1340.06 2848.7 1341.01 2849.84 1341.95 2850.74 1342.88 2851.39 1343.81 2852.05 1344.74 2852.53 1345.72 2852.83 1346.76 2853.13 1347.79 2853.28 1349.04 2853.28 1350.51 2853.28 1353.17 2852.57 1355.46 2851.15 1357.36 2849.73 1359.26 2847.79 1360.67 2845.35 1361.6 2842.91 1362.53 2840.13 1362.99 2837.02 1362.99 2834.53 1362.99 2832.09 1362.81 2829.7 1362.43 2827.3 1362.06 2824.64 1361.42 2821.7 1360.52L2823.86 1350.73 2827.36 1350.73C2827.48 1353.61 2828.29 1355.78 2829.79 1357.24 2831.28 1358.71 2833.67 1359.45 2836.93 1359.45 2839.77 1359.45 2842 1358.81 2843.6 1357.54 2845.2 1356.26 2846 1354.46 2846 1352.12 2846 1350.78 2845.78 1349.62 2845.33 1348.64 2844.88 1347.67 2844.15 1346.73 2843.13 1345.83 2842.11 1344.94 2840.49 1343.81 2838.28 1342.47 2835.94 1341.06 2834.12 1339.78 2832.82 1338.65 2831.52 1337.51 2830.54 1336.27 2829.88 1334.94 2829.22 1333.61 2828.89 1332.07 2828.89 1330.34 2828.89 1327.97 2829.53 1325.9 2830.8 1324.11 2832.07 1322.33 2833.89 1320.96 2836.26 1320 2838.62 1319.05 2841.38 1318.57 2844.52 1318.57Z" fill="#7F7F7F" fill-rule="evenodd"/><text fill="#000000" fill-opacity="0" font-family="Arial,Arial_MSFontService,sans-serif" font-size="44.4277" x="2821.7" y="1357.44">𝑠</text><path d="M2895.88 1342.29 2951.23 1342.29 2951.23 1348.26 2895.88 1348.26ZM2895.88 1323.64 2951.23 1323.64 2951.23 1329.62 2895.88 1329.62Z" fill="#7F7F7F" fill-rule="evenodd"/><text fill="#000000" fill-opacity="0" font-family="Arial,Arial_MSFontService,sans-serif" font-size="24.6172" x="2895.88" y="1345.18">=</text><path d="M3012.42 1300.19 3014.89 1300.19C3014.71 1303.07 3014.62 1307.05 3014.62 1312.14L3014.62 1350.51C3014.62 1352.24 3014.72 1353.55 3014.91 1354.44 3015.11 1355.32 3015.45 1356.04 3015.95 1356.59 3016.44 1357.15 3017.15 1357.58 3018.08 1357.9 3019.01 1358.21 3020.18 1358.45 3021.58 1358.61 3022.99 1358.78 3024.85 1358.89 3027.16 1358.95L3027.16 1362.23 2993.96 1362.23 2993.96 1358.95C2997.28 1358.8 2999.66 1358.6 3001.08 1358.35 3002.5 1358.09 3003.59 1357.71 3004.33 1357.2 3005.08 1356.69 3005.63 1355.97 3005.97 1355.04 3006.32 1354.11 3006.49 1352.6 3006.49 1350.51L3006.49 1314.07C3006.49 1312.88 3006.28 1312 3005.86 1311.45 3005.44 1310.89 3004.83 1310.62 3004.02 1310.62 3003.06 1310.62 3001.7 1311.11 2999.93 1312.1 2998.17 1313.09 2995.98 1314.45 2993.37 1316.19L2991.4 1312.73Z" fill="#7F7F7F" fill-rule="evenodd"/><text fill="#000000" fill-opacity="0" font-family="Arial,Arial_MSFontService,sans-serif" font-size="62.0371" x="2991.4" y="1354.48">1</text><path d="M3069.7 1297.95 3076.66 1297.95 3044.23 1381.55 3037.18 1381.55Z" fill="#7F7F7F" fill-rule="evenodd"/><text fill="#000000" fill-opacity="0" font-family="Arial,Arial_MSFontService,sans-serif" font-size="83.5996" x="3037.18" y="1371.1">/</text><path d="M3104.91 1300.19C3110.48 1300.19 3114.69 1301.41 3117.53 1303.85 3120.38 1306.3 3121.8 1309.84 3121.8 1314.48 3121.8 1316.07 3121.64 1317.53 3121.33 1318.86 3121.01 1320.19 3120.52 1321.51 3119.84 1322.81 3119.17 1324.11 3118.27 1325.51 3117.13 1327.01 3115.99 1328.51 3114.73 1330.03 3113.35 1331.57 3111.98 1333.11 3109.6 1335.68 3106.21 1339.28 3100.52 1345.3 3096.34 1350.55 3093.68 1355.04L3110.61 1355.04C3112.08 1355.04 3113.26 1354.95 3114.16 1354.77 3115.06 1354.59 3115.78 1354.29 3116.32 1353.88 3116.86 1353.46 3117.28 1352.91 3117.6 1352.24 3117.91 1351.56 3118.31 1350.52 3118.79 1349.11L3122.61 1349.11 3121.84 1362.23 3084.87 1362.23 3084.87 1360.07C3086.16 1356.93 3087.9 1353.71 3090.08 1350.42 3092.27 1347.12 3095.37 1343.24 3099.38 1338.78 3102.86 1334.95 3105.36 1332.04 3106.89 1330.07 3108.56 1327.91 3109.81 1326.05 3110.64 1324.47 3111.46 1322.9 3112.05 1321.42 3112.41 1320.03 3112.77 1318.63 3112.95 1317.23 3112.95 1315.83 3112.95 1313.58 3112.59 1311.6 3111.87 1309.87 3111.15 1308.15 3110.05 1306.8 3108.57 1305.81 3107.09 1304.82 3105.22 1304.33 3102.98 1304.33 3097.38 1304.33 3093.6 1307.44 3091.66 1313.67L3086.22 1313.67 3086.22 1305.05C3089.84 1303.34 3093.24 1302.1 3096.4 1301.34 3099.56 1300.58 3102.39 1300.19 3104.91 1300.19Z" fill="#7F7F7F" fill-rule="evenodd"/><text fill="#000000" fill-opacity="0" font-family="Arial,Arial_MSFontService,sans-serif" font-size="62.0371" x="3084.87" y="1354.48">2</text><path d="M3051.83 1061.28C3054.59 1061.28 3057.14 1061.46 3059.49 1061.84 3061.84 1062.21 3064.44 1062.85 3067.28 1063.75L3064.77 1075.29 3060.46 1075.29C3060.34 1072.75 3059.95 1070.75 3059.29 1069.3 3058.63 1067.84 3057.69 1066.8 3056.46 1066.17 3055.23 1065.55 3053.6 1065.23 3051.56 1065.23 3049.08 1065.23 3046.89 1065.74 3045 1066.76 3043.12 1067.78 3041.68 1069.16 3040.69 1070.91 3039.7 1072.67 3039.21 1074.62 3039.21 1076.78 3039.21 1079.02 3039.8 1080.99 3040.98 1082.68 3042.17 1084.37 3044.43 1086.37 3047.79 1088.68 3050.72 1090.72 3052.96 1092.54 3054.5 1094.14 3056.05 1095.74 3057.18 1097.44 3057.92 1099.24 3058.65 1101.03 3059.02 1103.11 3059.02 1105.48 3059.02 1109.13 3058.14 1112.38 3056.39 1115.21 3054.64 1118.04 3052.17 1120.22 3048.98 1121.76 3045.79 1123.31 3042.16 1124.08 3038.09 1124.08 3035.33 1124.08 3032.36 1123.85 3029.17 1123.4 3025.98 1122.96 3023.13 1122.39 3020.61 1121.7L3023.31 1109.34 3027.62 1109.34C3027.62 1113 3028.46 1115.72 3030.16 1117.5 3031.85 1119.28 3034.46 1120.17 3038 1120.17 3042.07 1120.17 3045.27 1119.06 3047.61 1116.85 3049.94 1114.63 3051.11 1111.55 3051.11 1107.59 3051.11 1105.77 3050.79 1104.16 3050.15 1102.76 3049.5 1101.37 3048.53 1100.04 3047.23 1098.76 3045.92 1097.49 3044.04 1096.03 3041.59 1094.39 3039.37 1092.89 3037.53 1091.41 3036.06 1089.96 3034.6 1088.51 3033.43 1086.88 3032.56 1085.09 3031.69 1083.29 3031.26 1081.28 3031.26 1079.07 3031.26 1075.53 3032.11 1072.42 3033.82 1069.72 3035.52 1067.03 3037.94 1064.95 3041.05 1063.48 3044.16 1062.01 3047.76 1061.28 3051.83 1061.28Z" fill="#0084B4" fill-rule="evenodd"/><text fill="#000000" fill-opacity="0" font-family="Arial,Arial_MSFontService,sans-serif" font-size="62.8008" x="3020.61" y="1116.23">𝑆</text><path d="M3102.58 1069.14 3158.1 1093.89 3158.1 1100.18 3102.58 1124.93 3102.58 1118.19 3151.36 1097.04 3102.58 1075.88Z" fill="#0084B4" fill-rule="evenodd"/><text fill="#000000" fill-opacity="0" font-family="Arial,Arial_MSFontService,sans-serif" font-size="55.793" x="3102.58" y="1117.96">&gt;</text><path d="M3219.11 1061.28 3221.58 1061.28C3221.4 1064.15 3221.31 1068.14 3221.31 1073.23L3221.31 1111.59C3221.31 1113.33 3221.41 1114.64 3221.61 1115.52 3221.8 1116.4 3222.14 1117.12 3222.64 1117.68 3223.13 1118.23 3223.84 1118.67 3224.77 1118.98 3225.7 1119.29 3226.87 1119.53 3228.28 1119.7 3229.68 1119.86 3231.54 1119.98 3233.85 1120.04L3233.85 1123.31 3200.65 1123.31 3200.65 1120.04C3203.97 1119.89 3206.35 1119.68 3207.77 1119.43 3209.19 1119.17 3210.28 1118.79 3211.03 1118.28 3211.78 1117.77 3212.32 1117.06 3212.67 1116.13 3213.01 1115.2 3213.18 1113.69 3213.18 1111.59L3213.18 1075.16C3213.18 1073.96 3212.97 1073.08 3212.55 1072.53 3212.13 1071.98 3211.52 1071.7 3210.71 1071.7 3209.75 1071.7 3208.39 1072.19 3206.62 1073.18 3204.86 1074.17 3202.67 1075.53 3200.07 1077.27L3198.09 1073.81Z" fill="#0084B4" fill-rule="evenodd"/><text fill="#000000" fill-opacity="0" font-family="Arial,Arial_MSFontService,sans-serif" font-size="62.0371" x="3198.09" y="1115.56">1</text><path d="M3276.39 1059.03 3283.35 1059.03 3250.92 1142.63 3243.87 1142.63Z" fill="#0084B4" fill-rule="evenodd"/><text fill="#000000" fill-opacity="0" font-family="Arial,Arial_MSFontService,sans-serif" font-size="83.5996" x="3243.87" y="1132.18">/</text><path d="M3311.6 1061.28C3317.17 1061.28 3321.38 1062.5 3324.22 1064.94 3327.07 1067.38 3328.49 1070.92 3328.49 1075.56 3328.49 1077.15 3328.33 1078.61 3328.02 1079.94 3327.7 1081.28 3327.21 1082.59 3326.54 1083.9 3325.86 1085.2 3324.96 1086.6 3323.82 1088.1 3322.68 1089.59 3321.42 1091.11 3320.05 1092.66 3318.67 1094.2 3316.29 1096.77 3312.9 1100.36 3307.21 1106.38 3303.03 1111.64 3300.37 1116.13L3317.31 1116.13C3318.77 1116.13 3319.96 1116.04 3320.85 1115.86 3321.75 1115.68 3322.47 1115.38 3323.01 1114.96 3323.55 1114.54 3323.98 1113.99 3324.29 1113.32 3324.6 1112.65 3325 1111.61 3325.48 1110.2L3329.3 1110.2 3328.54 1123.31 3291.56 1123.31 3291.56 1121.16C3292.85 1118.01 3294.59 1114.79 3296.78 1111.5 3298.96 1108.21 3302.06 1104.33 3306.07 1099.87 3309.55 1096.03 3312.05 1093.13 3313.58 1091.15 3315.25 1088.99 3316.5 1087.13 3317.33 1085.56 3318.15 1083.99 3318.74 1082.5 3319.1 1081.11 3319.46 1079.72 3319.64 1078.32 3319.64 1076.91 3319.64 1074.66 3319.28 1072.68 3318.56 1070.96 3317.84 1069.24 3316.74 1067.88 3315.26 1066.89 3313.78 1065.9 3311.91 1065.41 3309.67 1065.41 3304.07 1065.41 3300.29 1068.53 3298.35 1074.75L3292.91 1074.75 3292.91 1066.13C3296.54 1064.42 3299.93 1063.19 3303.09 1062.42 3306.25 1061.66 3309.08 1061.28 3311.6 1061.28Z" fill="#0084B4" fill-rule="evenodd"/><text fill="#000000" fill-opacity="0" font-family="Arial,Arial_MSFontService,sans-serif" font-size="62.0371" x="3291.56" y="1115.56">2</text></g></svg>